<svg width="640" height="512" viewBox="0 0 640 512" fill="none" xmlns="http://www.w3.org/2000/svg">
<g clip-path="url(#clip0_149_466)">
<path d="M277 204.5C274.224 206.7 259.505 224.5 237 238.5C214.56 252.459 194.279 244.762 187.063 242.024L187 242C179.84 239.283 164.5 226 170.5 207C176.5 188 210.995 155.756 210.995 155.756C210.453 154.768 209.91 153.78 208.975 152.677C207.991 152.401 207.401 152.24 206.81 152.078C204.156 151.542 201.501 151.006 198.461 150.346C197.656 150.112 197.236 150 196.817 149.887L196.817 149.887C194.664 149.421 192.512 148.955 190.032 148.339C189.468 148.097 189.231 148.007 188.995 147.917C184.97 146.867 185.089 145.165 180.905 143.202C176.722 141.24 105.5 92.2881 86.3154 94.5688C67.1308 96.8496 2.36226 177.365 8.59102 205.327C14.8198 233.29 88.8344 284.32 93.9793 291.628C94.5665 291.445 95.0071 291.441 95.2335 291.219C103.899 282.708 113.9 280.135 125.531 284.133C134.224 287.121 140.681 292.722 145.161 300.607C146.792 303.477 147.907 306.639 149.392 309.971C152.069 306.754 154.26 304.052 156.525 301.413C164.925 291.625 175.802 289.253 187.443 293.034C205.208 298.805 214.313 316.438 211.397 332.903C211.036 334.942 211.231 335.642 213.35 336.018C216.37 336.552 219.399 337.283 222.275 338.338C234.319 342.753 244.56 356.704 244.109 370.106C244.005 373.177 243.73 376.243 243.522 379.493C259.011 380.494 269.53 388.137 275.363 401.945C281.433 416.314 277.562 428.636 266.42 439.339C267.314 440.115 267.896 440.969 268.683 441.252C279.283 445.056 289.725 449.506 300.591 452.297C309.286 454.53 320 457 327.503 455.69C335.007 454.38 348.5 451 350.5 443.5C352.5 436 343.636 431.261 339.041 428.688C331.528 424.483 323.967 420.364 316.468 416.134C310.682 412.87 304.756 409.795 299.277 406.069C294.948 403.126 295.2 398.71 299.019 396.627C301.028 395.532 304.516 395.507 306.608 396.512C312.723 399.453 318.455 403.185 324.37 406.551C335.908 413.115 347.539 419.521 358.996 426.223C367.547 431.226 382.889 433.809 390 426.223C397.111 418.638 390.5 406.551 384 401.5C377.5 396.449 357.079 379.857 341 369C338.011 366.981 332.085 361.063 329.159 358.952C325.798 356.527 324.779 353.125 326.589 350.459C328.572 347.536 332.685 346.947 336.049 349.192C352.996 360.504 381.199 382.374 403 397C407.698 400.344 423.684 406.559 431 394C438.316 381.441 429.53 370.395 427.5 369C404.175 352.968 381.139 328.566 357.799 312.555C354.652 310.396 353.264 306.305 355.011 303.738C357.474 300.121 361.339 299.913 364.465 302.16C372.204 307.72 381.261 316.596 389.111 322C398.313 328.334 429.035 355.626 438.209 362C450.019 370.205 469 376.5 475 368C481 359.5 480.5 354.5 478 344C475.5 333.5 382 245 303 202C295 198.5 279.776 202.3 277 204.5Z" fill="black"/>
<path d="M243.983 210.947L244.309 211.047C244.677 210.579 245.045 210.111 245.647 209.683C245.882 209.723 245.868 209.705 245.868 209.705C247.437 208.311 249.005 206.917 250.859 205.58C251.143 205.636 251.058 205.581 251.058 205.581C252.001 204.558 252.945 203.534 254.086 202.177C254.377 201.766 254.472 201.688 254.566 201.611C256.566 199.47 258.566 197.329 260.802 195.004C261.04 194.821 261.094 194.745 261.094 194.745L261.095 194.744C262.482 193.046 263.87 191.349 265.477 189.486C265.697 189.321 265.721 189.232 265.721 189.232C267.161 188.104 268.601 186.975 270.439 185.831C270.837 185.814 271.108 185.938 271.108 185.938C272.231 185.531 273.354 185.123 274.933 184.675C275.665 184.692 275.942 184.748 276.218 184.805C277.543 184.286 278.838 183.658 280.201 183.273C282.922 182.503 285.68 181.867 288.862 181.136C289.534 181.157 289.769 181.217 290.003 181.278C291.028 180.829 292.053 180.381 293.393 179.896C293.927 179.93 294.146 180 294.365 180.071C297.014 178.318 299.627 178.254 302.302 180.086C304.041 181.277 305.879 182.324 307.732 183.694C307.791 183.953 307.777 183.88 307.777 183.88L307.779 183.881C310.653 185.452 313.528 187.024 316.571 188.768C316.738 188.942 316.742 188.995 316.742 188.995C317.333 189.393 317.924 189.792 318.894 190.314C319.366 190.518 319.458 190.597 319.551 190.677L319.552 190.677C320.141 191.054 320.73 191.432 321.685 191.945C322.149 192.158 322.246 192.236 322.344 192.314C328.245 196.04 334.146 199.767 340.305 203.66C340.76 203.962 340.956 204.098 341.153 204.234L341.153 204.234C342.585 205.069 344.017 205.903 345.446 207.022C345.442 207.307 345.447 207.216 345.447 207.216C347.066 208.144 348.685 209.073 350.492 210.223C350.68 210.445 350.888 210.627 350.888 210.627C351.59 210.963 352.291 211.3 353.006 211.92C353.018 212.202 353.03 212.127 353.03 212.127L353.03 212.127C353.889 212.533 354.748 212.938 355.681 213.598C355.754 213.852 355.76 213.838 355.76 213.838C359.68 216.217 363.621 218.563 367.506 220.997C368.583 221.672 369.495 222.61 370.431 223.813C370.458 224.093 370.536 223.988 370.614 223.883L370.615 223.883C372.321 224.914 374.027 225.944 375.814 227.203C375.895 227.431 375.894 227.433 375.894 227.433C376.425 227.74 376.956 228.048 377.764 228.538C378.25 228.883 378.46 229.045 378.669 229.207C379.109 229.517 379.548 229.827 380.025 230.365C380.062 230.592 380.075 230.537 380.075 230.537C380.752 230.916 381.428 231.294 382.389 231.85C382.673 232.029 382.828 232.266 382.828 232.266C383.304 232.575 383.781 232.884 384.259 233.454C384.261 233.713 384.263 233.641 384.263 233.641C384.921 234.026 385.579 234.411 386.478 235.016C386.719 235.236 386.972 235.432 386.972 235.432L386.973 235.432C388.159 236.248 389.344 237.063 390.499 238.165C390.467 238.45 390.485 238.375 390.485 238.375C391.872 239.25 393.259 240.125 394.881 241.301C395.39 241.773 395.665 241.944 395.939 242.115L395.939 242.115C396.871 242.824 397.803 243.533 398.953 244.524C399.486 245.055 399.801 245.305 400.117 245.554L400.117 245.554C401.956 246.943 403.796 248.332 405.66 249.983C405.684 250.245 405.696 250.163 405.696 250.163C407.01 251.085 408.324 252.006 409.729 253.175C409.82 253.422 409.808 253.353 409.808 253.353C410.448 253.744 411.088 254.134 411.771 254.783C411.814 255.042 411.825 255.007 411.825 255.007L411.825 255.007C412.418 255.437 413.012 255.867 413.988 256.416C414.372 256.535 414.579 256.822 414.579 256.822C414.98 257.14 415.381 257.458 415.862 257.982C415.941 258.189 415.929 258.231 415.929 258.231L415.93 258.231C416.435 258.529 416.941 258.827 417.409 259.403C417.372 259.682 417.4 259.602 417.4 259.602C419.091 260.736 420.882 261.748 422.453 263.029C426.184 266.07 429.81 269.238 433.758 272.522C434.205 272.881 434.372 273.072 434.539 273.264C434.979 273.577 435.418 273.89 435.892 274.432C435.927 274.66 435.941 274.608 435.941 274.608L435.942 274.608C437.784 275.993 439.627 277.379 441.468 279.042C441.467 279.32 441.479 279.246 441.479 279.246L441.481 279.248C445.848 282.964 450.216 286.68 454.538 290.683C454.492 290.97 454.539 290.89 454.539 290.89C455.156 291.068 455.774 291.246 456.689 291.7C457.528 292.682 458.07 293.387 458.613 294.093L458.613 294.093C459.314 294.478 460.015 294.862 460.991 295.447C461.265 295.647 461.354 295.888 461.354 295.888L461.354 295.888C461.779 296.226 462.203 296.565 462.678 297.125C462.729 297.347 462.738 297.306 462.738 297.306L462.741 297.309C464.34 298.679 465.939 300.05 467.743 301.668C467.948 301.914 468.203 302.099 468.203 302.099C468.558 302.472 468.914 302.845 469.417 303.391C469.565 303.564 469.568 303.555 469.568 303.555C472.073 305.709 474.578 307.862 477.083 310.275C477.083 310.535 477.122 310.5 477.122 310.5C479.251 312.313 481.465 314.036 483.48 315.967C485.013 317.437 486.488 318.173 488.77 316.9C489.096 316.903 489.254 316.943 489.254 316.943C493.928 314.14 498.612 311.355 503.268 308.524C504.617 307.704 505.885 306.753 507.465 305.906C507.739 305.951 507.674 305.9 507.674 305.9L507.674 305.9C508.049 305.463 508.424 305.026 509.064 304.624C509.328 304.657 509.283 304.618 509.283 304.618C509.636 304.16 509.988 303.703 510.602 303.272C510.865 303.299 510.808 303.262 510.808 303.262C511.161 302.806 511.513 302.349 512.134 301.918C512.402 301.944 512.339 301.908 512.339 301.908C513.2 301.002 514.061 300.096 515.199 299.219C515.477 299.249 515.416 299.219 515.416 299.219C519.116 295.82 621.617 216.651 623.35 189.541C625.084 162.431 562.697 95.9631 539.796 101.513C516.895 107.064 488.237 135.794 460.029 142.347C431.82 148.899 406.775 144.615 396.959 142.281C387.143 139.947 366.868 134.048 337.121 130.653C307.373 127.258 299.724 130.726 287.318 131.306C277.923 131.745 268.513 132.772 259.223 134.246C252.12 135.373 247.343 135.5 239 143C230.657 150.5 227.318 159.771 223.941 164.008C223.573 164.48 223.385 164.673 223.197 164.867L223.197 164.867C222.899 165.317 222.601 165.766 222.081 166.231C221.859 166.248 221.9 166.268 221.9 166.268C221.576 166.753 221.251 167.238 220.655 167.699C220.384 167.674 220.465 167.702 220.465 167.702C220.078 168.392 219.692 169.082 219.096 170.015C218.888 170.257 218.658 170.373 218.658 170.373L218.658 170.374C218.334 170.831 218.01 171.288 217.43 171.76C217.173 171.774 217.243 171.784 217.243 171.784L217.243 171.785C216.843 172.394 216.443 173.003 215.828 173.908C215.542 174.301 215.47 174.4 215.399 174.498L215.399 174.498C215.061 174.881 214.724 175.265 214.192 175.761C213.997 175.873 214.019 175.875 214.019 175.875L214.019 175.875C210.77 180.218 207.522 184.561 204.016 188.935C203.758 188.966 203.82 188.998 203.82 188.998C202.922 190.353 202.024 191.708 200.87 193.106C200.614 193.15 200.688 193.159 200.688 193.159L200.687 193.162C199.265 195.244 197.843 197.327 196.197 199.597C195.973 199.783 195.806 200.011 195.806 200.011C195.449 200.679 195.093 201.346 194.473 202.058C194.209 202.103 194.266 202.113 194.266 202.113L194.266 202.114C193.847 202.942 193.429 203.77 192.801 204.727C192.591 204.856 192.565 204.854 192.565 204.854L192.564 204.855C192.142 205.661 191.719 206.468 191.129 207.45C190.962 207.624 190.913 207.629 190.913 207.629C190.554 208.512 190.195 209.395 189.629 210.61C189.326 211.251 189.229 211.56 189.132 211.87C188.845 213.978 188.602 216.093 188.262 218.193C187.457 223.166 188.066 224.206 194.15 227.183C196.394 227.439 198.108 227.601 199.821 227.762L199.824 227.762C202.767 227.461 205.709 227.16 209.202 226.855C210.077 226.892 210.401 226.932 210.726 226.973C212.011 226.567 213.297 226.161 215.017 225.734C215.452 225.713 215.772 225.829 215.772 225.829C216.632 225.419 217.491 225.009 218.781 224.601C219.335 224.627 219.459 224.65 219.582 224.673L219.582 224.673L219.583 224.673C220.627 224.212 221.672 223.752 222.979 223.375C223.24 223.458 223.211 223.41 223.211 223.41L223.211 223.41C224.048 222.965 224.886 222.52 225.979 222.142C226.235 222.208 226.21 222.172 226.21 222.172L226.21 222.172C227.019 221.684 227.828 221.196 228.895 220.794C229.152 220.88 229.092 220.828 229.092 220.828C229.49 220.409 229.888 219.989 230.657 219.447C231.275 219.379 231.523 219.435 231.771 219.49L231.771 219.49C232.236 219.043 232.701 218.596 233.436 218.231C233.705 218.314 233.646 218.265 233.646 218.265L233.649 218.262C236.753 215.999 239.857 213.736 243.311 211.267C243.66 211.06 243.983 210.947 243.983 210.947Z" fill="black"/>
<path d="M122.826 383.396C117.845 377.711 118.24 365.625 122.807 360.314C137.638 343.073 152.138 325.547 166.743 308.113C169.084 305.319 172.05 304.12 175.645 303.907C188.168 303.166 195.223 310.625 198.851 320.064C201.203 326.182 200.549 332.568 196.101 337.9C182.251 354.506 168.321 371.046 154.089 387.805C152.966 388.97 152.174 389.94 151.382 390.91C151.382 390.91 151.424 390.984 151.126 390.92C150.02 391.314 149.26 391.905 148.397 392.21C141.976 394.478 135.829 394.124 130.059 390.213C128.823 389.376 127.474 388.706 126.178 387.96C126.178 387.96 126.204 387.936 126.187 387.693C125.055 386.099 123.94 384.748 122.826 383.396Z" fill="black"/>
<path d="M228.996 360.244C228.996 360.244 229.039 360.565 229.001 360.984C229.826 363.478 230.689 365.554 231.551 367.63C231.535 367.926 231.519 368.223 231.413 369.059C231.289 371.4 231.254 373.2 231.22 375C231.132 375.501 231.043 376.002 230.71 376.893C229.066 379.547 227.667 381.811 226.267 384.076C226.267 384.076 226.099 384.372 225.835 384.612C225.183 385.469 224.795 386.086 224.407 386.702C215.31 397.63 205.806 408.246 197.232 419.573C188.809 430.7 176.959 428.902 168.445 420.726C163.633 416.105 161.44 410.241 161.29 403.846C161.154 398.048 164.659 393.504 168.259 389.226C178.336 377.25 188.548 365.384 198.39 353.216C202.96 347.566 211.132 346.666 217.106 349.731C220.343 351.392 223.151 353.896 226.225 356.488C227.197 358.052 228.096 359.148 228.996 360.244Z" fill="black"/>
<path d="M251.452 393.715C259.059 397.122 263.054 403.08 265.086 410.84C267.444 419.844 262.414 426.004 257.416 432.113C252.449 438.184 246.647 443.617 242.218 450.052C236.479 458.389 226.792 459.363 218.852 454.214C211.095 449.183 206.89 441.946 207.507 432.448C207.69 429.627 208.874 426.453 210.579 424.222C217.157 415.617 224.344 407.495 230.895 398.869C236.507 391.48 243.456 391.081 251.452 393.715Z" fill="black"/>
<path d="M113.304 294.81C127.248 294.368 137.798 305.789 137.58 319.177C137.531 322.142 136.075 325.535 134.21 327.93C129.188 334.378 123.956 340.75 118.118 346.468C113.388 351.1 107.099 351.81 99.6488 348.13C90.8488 343.784 84.5084 334.585 86.2909 324.066C86.6764 321.791 87.338 319.264 88.725 317.509C93.5108 311.453 98.4017 305.427 103.819 299.933C106.164 297.556 109.892 296.506 113.304 294.81Z" fill="black"/>
</g>
<defs>
<clipPath id="clip0_149_466">
<rect width="640" height="512" fill="white"/>
</clipPath>
</defs>
</svg>
