<svg width="200" height="200" viewBox="0 0 200 200" fill="none" xmlns="http://www.w3.org/2000/svg">
<g clip-path="url(#clip0_129_1757)">
<path d="M25 83.5167L18.3333 71.9697C17.5049 70.5348 17.9965 68.7 19.4314 67.8716L45.6138 52.7552C46.2821 52.3693 46.776 51.7408 46.9929 51.0001L50.2505 39.8749C50.4673 39.1343 50.9613 38.5057 51.6296 38.1198L92.0668 14.7734C92.7588 14.3739 93.5816 14.2669 94.3527 14.4763L105.094 17.3919C105.865 17.6012 106.688 17.4942 107.38 17.0947L133.747 1.87158C135.182 1.04316 137.016 1.53478 137.845 2.96966L144.512 14.5167C145.34 15.9515 144.848 17.7863 143.413 18.6147L29.0981 84.6147C27.6632 85.4432 25.8284 84.9515 25 83.5167Z" fill="black"/>
<path d="M41.0295 175.971L41.1694 85.8327C41.1716 84.3912 41.9493 83.0624 43.205 82.3544L92.5855 54.5156C93.185 54.1776 93.8616 54 94.5499 54H154.995C157.206 54 158.998 55.7939 158.995 58.0049L158.85 176.023C158.837 186.508 150.335 195 139.85 195H60.0295C49.5246 195 41.0132 186.475 41.0295 175.971Z" fill="black"/>
</g>
<defs>
<clipPath id="clip0_129_1757">
<rect width="200" height="200" fill="white"/>
</clipPath>
</defs>
</svg>
