<svg width="492" height="459" viewBox="0 0 492 459" fill="none" xmlns="http://www.w3.org/2000/svg">
<path d="M347.045 394.014C302.329 366.416 257.946 338.974 213.658 311.38C212.228 310.489 210.773 307.898 211.01 306.357C212.467 296.868 213.58 287.202 216.349 278.062C223.604 254.117 210.951 230.279 186.828 223.831C166.193 218.315 144.415 229.842 137.025 250.228C135.738 253.78 134.61 257.39 133.192 261.619C118.743 252.669 104.574 243.891 90.2335 235.008C111.988 200.775 133.453 166.998 155.204 132.77C239.442 185.027 323.493 237.168 407.543 289.309C407.457 289.675 407.371 290.042 407.285 290.409C398.255 290.409 389.185 290.939 380.204 290.274C369.111 289.452 358.409 289.051 348.224 294.84C333.183 303.39 324.768 321.359 328.244 338.634C331.679 355.709 346.108 369.169 363.129 371.078C386.409 373.688 409.69 374.631 432.674 368.982C440.186 367.136 447.388 364.028 455.64 361.184C459.725 368.913 465.139 377.174 468.572 386.19C472.326 396.046 463.901 406.388 453.064 405.903C435.594 405.121 418.152 403.738 400.701 402.563C389.733 401.825 378.694 401.547 367.833 400.021C360.882 399.045 354.197 396.171 347.045 394.014Z" fill="#010101"/>
<path d="M246.633 152.33C210.578 102.591 233.814 35.6518 292.328 19.7496C348.153 4.57811 403.433 51.4819 397.172 108.994C393.434 143.333 375.188 167.707 343.034 179.773C310.218 192.087 280.26 184.993 254.448 161.201C251.653 158.625 249.381 155.481 246.633 152.33Z" fill="#010101"/>
<path d="M392.933 257.087C364.065 238.403 335.503 219.919 305.767 200.675C310.08 200.22 313.113 199.828 316.158 199.59C344.227 197.398 372.028 198.389 399.174 206.797C424.588 214.669 445.1 228.593 460.059 251.415C472.714 270.72 475.597 312.05 456.923 332.948C445.504 345.727 431.264 352.73 414.834 355.793C400.982 358.376 387.014 358.458 373.101 356.094C359.327 353.754 350.126 341.274 352.177 327.975C354.275 314.366 366.261 305.735 380.163 306.624C389.537 307.223 399.132 307.111 408.407 305.779C418.65 304.308 421.971 298.973 420.276 288.767C418.103 275.677 411.426 265.884 398.403 261.141C396.47 260.437 394.951 258.599 392.933 257.087Z" fill="#020202"/>
<path d="M136.315 120.811C136.539 121.734 136.687 122.6 136.337 123.151C115.422 156.118 94.4658 189.059 73.5065 221.998C73.2427 222.413 72.8843 222.767 72.2462 223.544C62.633 217.451 52.9407 211.44 43.3947 205.205C37.9848 201.672 32.2607 198.351 27.6391 193.93C13.0257 179.95 10.6952 158.656 21.4057 141.432C27.8982 130.991 34.461 120.592 41.1435 110.272C53.889 90.5881 78.8424 84.8515 98.9533 97.1315C111.43 104.75 123.664 112.769 136.315 120.811Z" fill="#010101"/>
<path d="M269.317 372.729C288.001 384.246 306.588 395.243 324.705 406.966C337.087 414.977 350.409 418.955 364.939 420.083C376.176 420.956 387.362 422.481 398.573 423.717C397.316 433.702 390.427 439.675 380.122 439.808C370.299 439.935 360.473 439.836 350.648 439.836C317.676 439.836 284.705 439.838 251.733 439.835C237.807 439.833 230.727 432.904 230.704 419.138C230.668 397.497 230.691 375.857 230.703 354.216C230.704 352.778 230.824 351.339 230.928 349.007C244.01 357.081 256.515 364.799 269.317 372.729Z" fill="#020202"/>
<path d="M149.361 266.473C151.123 261.568 152.313 256.831 154.435 252.558C160.239 240.876 174.049 235.885 185.835 240.833C198.181 246.015 204.409 258.997 200.216 271.602C196.831 281.779 194.665 291.893 195.289 302.844C196.022 315.71 185.547 326.224 172.511 327.39C159.707 328.535 148.207 319.659 145.938 306.834C143.53 293.225 145.944 280.001 149.361 266.473Z" fill="#010101"/>
</svg>
