<svg width="640" height="512" viewBox="0 0 640 512" fill="none" xmlns="http://www.w3.org/2000/svg">
<path d="M357.663 307.804C339.1 334.238 320.685 360.308 302.511 386.544C299.684 390.626 297.557 391.066 293.663 388.001C288.063 383.592 282.183 379.479 276.114 375.738C271.493 372.89 268.954 369.074 267.812 363.934C264.343 348.311 266.723 333.168 271.64 318.297C275.118 307.776 275.65 297.327 271.577 286.959C265.149 270.592 252.821 260.817 235.574 258.753C216.48 256.467 201.347 264.033 191.416 280.775C187.571 287.258 185.815 294.606 183.673 301.771C183.029 303.924 183.016 306.338 181.138 308.435C176.086 306.536 172.099 302.913 167.785 299.938C148.391 286.563 129.205 272.889 109.798 259.535C99.5404 252.477 91.7775 243.558 86.3012 232.366C74.0052 207.234 61.4763 182.215 48.8723 157.235C45.3708 150.296 44.5609 143.561 49.3431 137.132C54.0348 130.825 60.4489 129.31 68.3172 130.26C95.398 133.529 122.543 136.269 149.667 139.181C162.327 140.541 173.949 144.508 184.469 151.861C244.898 194.097 305.397 236.234 365.86 278.421C368.47 280.241 370.963 282.227 374 284.504C368.472 292.394 363.182 299.945 357.663 307.804Z" fill="black"/>
<path d="M420.681 47.9229C453.352 66.848 469.494 95.2222 467.891 132.043C465.847 179.009 429.534 212.784 386.845 217.458C339.076 222.688 296.15 189.459 287.477 143.37C278.261 94.3983 313.241 45.0371 362.754 38.0552C383.048 35.1935 402.233 38.0456 420.681 47.9229Z" fill="black"/>
<path d="M474.787 304.435C471.127 302.778 469.686 304.447 469.475 307.508C469.181 311.78 469.19 316.073 468.979 320.352C468.887 322.222 469.617 324.231 468.825 325.272C438.428 297.403 402.066 278.041 369.005 254.086C363.235 249.905 357.188 246.11 351.29 242.105C350.023 241.244 348.421 240.637 348 238.292C356.791 235.761 365.768 235.15 374.659 234.314C391.877 232.695 409.135 232.447 426.361 234.278C461.254 237.985 494.455 246.265 521.095 271.194C537.184 286.251 546.305 304.91 549.193 326.876C551.492 344.368 549.06 360.778 539.554 375.697C527.29 394.943 508.811 404.452 486.884 407.57C461.25 411.216 436.168 407.579 411.578 400.168C400.11 396.712 393.919 388.131 392.663 376.582C391.545 366.299 395.63 357.625 404.212 351.588C411.172 346.692 419.004 345.567 427.142 347.822C440.056 351.4 453.192 353.605 466.545 354.151C472.738 354.405 479.001 353.633 485.012 351.91C491.673 350.002 494.69 345.901 494.956 338.388C495.503 322.949 487.501 312.47 474.787 304.435Z" fill="black"/>
<path d="M456.152 489.69C453.023 490.884 450.193 491.001 447.318 491C401.272 490.977 355.227 490.995 309.181 490.967C295.879 490.959 287.548 483.373 287.237 470.014C286.821 452.2 287.062 434.369 287.141 416.546C287.151 414.33 287.894 412.117 288.461 409C293.906 412.566 298.669 415.606 303.35 418.766C319.754 429.842 336.134 440.954 352.516 452.063C382.335 472.283 420.845 464.859 440.849 434.815C443.512 430.815 446.274 428.788 451.238 429.183C455.823 429.547 460.511 429.677 465.107 428.717C467.937 428.126 469.021 429.416 469 432.169C468.902 444.986 468.767 457.804 468.836 470.621C468.885 479.701 464.562 485.765 456.152 489.69Z" fill="black"/>
<path d="M417.277 314.643C425.505 320.979 434.788 325.45 441 333.727C439.311 335.556 438.134 334.175 436.953 333.71C407.808 322.237 377.629 340.906 375.828 372.074C375.013 386.171 381.348 397.837 391.549 407.434C398.889 414.339 407.663 418.983 417.307 423.218C414.321 428.492 409.92 431.487 405.304 433.923C387.956 443.077 371.125 441.806 355.05 430.673C343.798 422.879 332.734 414.807 321.356 407.202C317.491 404.619 316.979 402.757 319.743 398.855C340.184 369.994 360.408 340.98 380.696 312.012C383.346 308.228 386.067 304.489 388.583 300.617C390.567 297.562 392.587 297.216 395.578 299.399C402.613 304.534 409.815 309.442 417.277 314.643Z" fill="black"/>
<path d="M249.906 361.864C249.781 376.915 240.292 388.25 226.95 389.784C212.007 391.501 199.444 382.877 196.432 368.055C190.968 341.164 194.981 315.182 205.76 290.283C211.473 277.088 227.133 271.605 240.29 277.143C253.781 282.823 260.356 297.135 255.299 311.351C250.67 324.362 247.711 337.506 248.813 351.374C249.078 354.714 249.534 358.039 249.906 361.864Z" fill="black"/>
</svg>
