<svg width="200" height="200" viewBox="0 0 200 200" fill="none" xmlns="http://www.w3.org/2000/svg">
<path d="M38.1641 183C35.5266 183 32.8704 182.033 31.4763 179.794C29.1364 176.036 28.5576 171.814 28.5806 167.452C28.6813 148.346 22.3864 130.281 18.935 111.748C14.813 89.6149 13.984 67.472 23.4383 46.225C31.3526 28.4388 46.3384 19.7133 65.9359 17.744C71.1916 17.2158 76.5036 17.1025 81.7937 17.0138C90.8638 16.8618 99.8853 17.4347 108.736 14.1973C115.471 11.734 122.45 13.5108 129.15 15.5878C131.175 16.2156 133.105 16.8805 135.384 16.0101C158.921 7.0208 182.945 20.7685 192.312 41.4031C196.739 51.1562 199.273 61.3217 199.687 71.8045C200.521 92.932 199.935 114.029 194.882 134.769C193.137 141.929 190.569 148.796 186.124 154.869C179.298 164.194 168.091 167.551 157.748 163.462C146.474 159.005 139.078 147.573 140.685 137.089C141.098 134.395 149.649 125.402 152.461 124.751C155.122 124.134 156.735 125.705 158.475 127.282C160.742 129.337 162.748 133.4 166.404 131.339C170.359 129.109 169.818 124.886 168.461 121.011C167.642 118.674 166.522 116.571 164.185 115.388C159.231 112.881 154.225 110.469 149.767 108.276C147.655 108.776 147.362 109.907 146.986 110.944C139.704 131.041 132.138 151.086 133.338 172.898C133.519 176.197 131.823 178.694 129.998 181.39C129.451 182.199 128.551 182.705 127.575 182.734C119.043 182.988 110.577 182.985 101.603 182.751C100.873 182.732 100.167 182.452 99.6607 181.924C95.9338 178.045 94.8206 173.749 94.9337 168.927C95.0859 162.433 94.8127 155.931 94.9308 149.436C94.9846 146.474 94.0897 145.066 90.7281 145.162C84.6208 145.337 78.499 145.357 72.3933 145.157C68.6095 145.034 67.5167 146.626 67.584 149.991C67.7044 156.009 67.3856 162.036 67.5094 168.054C67.5942 172.175 66.9139 175.998 64.9911 179.438C63.6204 181.89 60.8082 183 57.9992 183C51.477 183 44.9187 183 38.1641 183ZM35.5932 43.3247C31.7431 48.7961 29.3805 54.8367 27.9349 61.2673C24.3392 77.2628 25.7611 93.0718 29.5367 108.844C33.3052 124.586 37.5948 140.263 37.8723 156.56C38.0749 168.461 37.9917 168.462 50.3133 168.365C56.7438 168.315 58.0479 167.07 58.0772 160.732C58.1176 151.994 58.1685 143.255 58.0697 134.518C58.022 130.299 60.0692 128.363 64.3586 128.365C75.6202 128.372 86.8819 128.366 98.1436 128.372C102.388 128.375 104.558 130.278 104.512 134.497C104.434 141.646 104.491 148.796 104.497 155.945C104.508 168.867 104.564 168.834 118.035 168.402C122.25 168.267 124.068 166.538 123.937 162.562C123.723 156.047 124.265 149.58 125.291 143.132C128.058 125.754 134.928 109.53 140.549 92.9582C141.958 88.8009 144.399 87.8853 148.649 89.8013C154.641 92.5031 160.445 95.594 166.469 98.2267C173.267 101.198 176.825 106.205 178.158 113.12C178.889 116.909 179.16 120.678 179.005 124.483C178.748 130.804 176.751 136.593 170.89 139.978C165.218 143.254 160.071 140.642 155.385 137.201C154.434 136.502 153.531 135.756 152.353 136.798C151.246 137.777 151.73 138.725 152.304 139.788C157.755 149.874 170.56 151.074 177.796 142.14C181.523 137.539 183.742 132.238 185.228 126.666C190.236 107.884 190.975 88.6972 190.093 69.496C189.626 59.3315 186.842 49.4898 181.347 40.4946C173.222 27.1942 157.232 19.221 143.837 23.1877C136.379 25.3963 129.528 26.276 122.353 23.1349C121.466 22.7467 120.444 22.6193 119.472 22.4385C109.688 20.6201 98.6438 26.0532 95.6949 35.0929C88.6117 56.8063 91.9747 76.788 108.029 94.1299C110.701 97.0168 113.65 99.8215 118.169 101.358C121.423 92.1013 124.619 83.1289 127.718 74.1255C128.807 70.9591 130.417 68.2341 134.365 69.473C138.527 70.7791 137.566 74.1744 136.58 77.0834C132.998 87.6479 129.354 98.194 125.604 108.705C123.71 114.013 121.396 114.739 116.252 111.829C90.036 96.9986 79.8145 70.3336 83.6781 43.4011C84.5093 37.6068 86.9024 32.2379 88.6441 26.036C83.086 26.036 78.1447 25.8368 73.2263 26.0733C58.4838 26.7823 45.1156 30.4641 35.5932 43.3247Z" fill="black"/>
<path d="M167.5 50.5C172.397 51.0024 176.21 56.2239 174.439 60.7603C173.1 64.1919 170.263 66.3536 166.17 65.9522C162.585 65.6007 159.881 63.4563 159.244 60.1913C157.99 53.7585 162.603 49.9976 167.5 50.5Z" fill="black"/>
<path d="M1.02194 167.597C0.775562 163.668 2.63545 162.266 5.01328 162.159C10.0289 161.933 15.0569 161.981 20.0769 162.101C22.434 162.157 24.0561 163.719 23.9985 166.822C23.9381 170.077 22.1256 170.993 19.7696 170.978C15.0036 170.949 10.2369 170.932 5.47128 170.999C3.4931 171.027 1.91666 170.399 1.02194 167.597Z" fill="black"/>
<path d="M4.01717 153.597C3.82435 149.668 5.27991 148.266 7.14083 148.159C11.0661 147.933 15.001 147.981 18.9297 148.101C20.7744 148.157 22.0439 149.719 21.9988 152.822C21.9516 156.077 20.5331 156.993 18.6893 156.978C14.9593 156.949 11.2289 156.932 7.49927 156.999C5.95112 157.027 4.71739 156.399 4.01717 153.597Z" fill="black"/>
</svg>
