<svg width="200" height="200" viewBox="0 0 200 200" fill="none" xmlns="http://www.w3.org/2000/svg">
<path d="M155.534 128.705C151.516 137.339 145.913 144.5 139.171 151.132C141.468 153.04 143.383 154.703 145.377 156.276C155.87 164.553 156.769 175.78 155.016 187.298C153.762 195.533 143.913 199.734 135.897 196.351C132.976 195.119 130.499 193.269 128.259 191.16C125.776 188.822 123.154 186.54 121.108 183.873C113.95 174.541 103.96 170.836 92.3503 169.75C80.7204 168.661 75.1105 164.173 76.0532 152.33C76.4212 147.706 75.6429 142.962 78.9784 138.591C75.3635 136.234 71.2959 135.962 67.5542 135.004C60.9324 133.309 54.4154 131.526 49.233 126.94C47.5814 125.478 45.8154 125.706 43.862 126.157C39.7361 127.111 35.5225 127.159 31.4072 126.293C18.0843 123.489 12.1395 114.015 14.8403 100.149C16.9347 89.3967 27.8645 82.3406 40.5718 84.4322C45.4902 85.2418 46.7284 83.7297 48.1704 79.809C56.2283 57.8994 81.8056 46.1953 106.761 52.7889C113.14 54.4743 119.398 56.5978 125.81 58.1452C134.156 60.1591 135.769 59.2354 139.664 51.0921C132.101 45.6706 124.057 42.1094 114.165 44.4897C106.623 46.3043 99.3098 49.2266 91.1683 46.7235C77.5318 42.531 71.2552 29.5118 77.1961 16.9533C79.3639 12.3707 83.4591 9.91906 88.1637 8.25882C106.758 1.69693 123.811 5.53473 139.921 15.3883C147.132 19.7995 153.942 24.7632 160.369 30.1427C163.674 32.909 167.272 34.2998 171.51 34.9833C186.186 37.3505 195.097 45.5008 197.982 59.6713C199.781 68.5071 200.472 77.513 198.46 86.4436C195.497 99.5956 186.29 104.613 172.793 100.534C170.013 99.6943 167.332 98.5575 164.23 97.4196C163.026 108.386 160.289 118.615 155.534 128.705ZM113.564 64.7202C111.41 64.0503 109.252 63.3909 107.102 62.7089C82.3941 54.8714 57.2183 68.4578 55.3459 92.0294C54.8913 97.7515 51.4364 99.1034 46.2055 96.2468C40.9573 93.3808 35.685 92.8353 30.2098 95.2119C27.4159 96.4246 24.885 98.393 24.9276 101.502C24.97 104.599 27.53 106.496 30.3433 107.696C35.6554 109.963 40.807 109.474 45.887 106.777C51.0501 104.036 52.834 104.564 55.1415 109.524C56.5573 112.567 59.1693 113.985 62.1354 115.127C68.1427 117.441 74.4874 118.625 80.7219 120.176C96.0042 123.979 98.2615 130.061 88.81 142.001C83.9356 148.159 85.1687 151.464 93.2513 152.034C108.227 153.089 120.348 158.775 129.517 170.252C131.719 173.007 134.525 175.364 137.277 177.66C138.893 179.009 140.686 180.784 143.286 179.221C145.869 177.669 145.674 175.265 145.195 172.968C144.142 167.919 140.594 164.494 136.476 161.525C129.739 156.667 121.956 153.601 114.542 149.902C104.09 144.687 103.871 143.172 112.815 135.772C120.69 129.256 125.337 121.624 123.334 111.224C122.003 104.311 119.399 98.1524 113.719 93.4056C111.327 91.4066 109.54 88.9801 112.126 86.0955C114.881 83.0227 117.763 84.4296 120.351 86.5166C121.811 87.6937 123.178 89.0045 124.425 90.3882C133.659 100.638 139.273 124.29 124.707 138.117C124.012 138.777 123.427 139.543 122.079 141.06C129.072 139.014 133.26 135.088 136.982 130.74C148.94 116.768 153.952 100.403 154.698 82.6498C154.966 76.2685 157.872 74.5284 163.71 77.5408C167.699 79.5984 171.513 81.961 175.886 83.2803C182.866 85.3861 187.022 83.2603 188.847 76.5318C189.737 73.2531 189.45 69.881 189.18 66.586C188.052 52.8155 180.131 44.3692 167.55 43.8665C163.411 43.7012 160.199 42.4122 157.166 39.9493C150.385 34.4431 143.419 29.1607 136.068 24.3466C123.571 16.1616 110.104 12.1393 95.0245 16.0738C91.3798 17.0248 86.175 17.8097 86.5166 22.7224C86.8393 27.3637 91.6871 28.5497 95.6935 29.7397C97.6981 30.3352 99.8249 30.1627 101.889 29.5573C104.722 28.7263 107.571 27.9413 110.433 27.2044C125.669 23.2806 145.116 30.4092 153.744 43.0584C155.375 45.4493 156.4 48.0035 153.975 50.347C150.38 53.8222 147.767 57.9561 144.85 61.8939C140.554 67.6922 134.809 69.6952 127.486 68.2381C123.041 67.3538 118.633 66.4412 113.564 64.7202Z" fill="black"/>
<path d="M32.5403 43.723C29.5888 43.7032 27.1438 43.7837 24.7141 43.6366C21.7495 43.457 19.7331 42.0701 19.6408 39.0203C19.5476 35.9375 21.5448 34.2722 24.4809 34.2412C37.1941 34.1073 49.9102 34.1166 62.624 34.2208C65.765 34.2465 68.1566 35.9522 68.0749 39.1074C67.9921 42.3077 65.4578 43.6334 62.3173 43.6541C52.563 43.7185 42.8083 43.7054 32.5403 43.723Z" fill="black"/>
<path d="M27.255 60.552C23.0927 60.5238 19.435 60.6664 15.8085 60.4089C12.6943 60.1878 10.4421 58.505 10.6367 55.3007C10.8165 52.3394 12.9986 51.0845 16.0256 51.0877C24.1839 51.0965 32.3422 51.0979 40.5004 51.0806C43.7049 51.0738 46.0702 52.2741 46.225 55.5227C46.3854 58.8879 43.7527 60.1663 40.7839 60.3529C36.4612 60.6246 32.1114 60.503 27.255 60.552Z" fill="black"/>
<path d="M2.02964 73.2356C1.69685 69.1154 4.20901 67.6447 7.42077 67.5323C14.1954 67.2953 20.9867 67.3463 27.7673 67.4715C30.9511 67.5304 33.1421 69.1684 33.0643 72.423C32.9827 75.8362 30.5345 76.7968 27.3523 76.7816C20.9147 76.7509 14.4763 76.7334 8.0394 76.8036C5.36746 76.8328 3.23815 76.1745 2.02964 73.2356Z" fill="black"/>
<path d="M173.185 67.6841C168.623 65.0862 167.951 61.8031 170.391 58.4354C172.09 56.0913 175.077 55.3026 178.196 56.6733C181.579 58.1601 182.634 60.8177 181.645 63.8143C180.539 67.1628 177.786 68.717 173.185 67.6841Z" fill="black"/>
</svg>
