<svg width="521" height="459" viewBox="0 0 521 459" fill="none" xmlns="http://www.w3.org/2000/svg">
<path d="M399.553 430.398C395.583 435.5 390.546 437.797 384.577 437.803C342.757 437.845 300.936 437.811 259.116 437.789C258.805 437.789 258.495 437.608 257.603 437.329C258.507 427.09 259.547 416.732 260.313 406.354C262.247 380.12 264 353.872 265.948 327.638C266.738 316.988 263.589 307.2 259.549 297.687C249.115 273.116 238.418 248.657 227.298 222.93C234.789 220.055 242.598 216.563 250.709 214.043C272.532 207.262 295.206 206.312 317.805 204.994C339.072 203.754 360.352 202.795 381.113 197.205C409.678 189.513 427.924 171.308 437.096 143.468C445.437 118.147 447.805 92.1158 446.612 65.6472C446.102 54.3358 452.371 44.5089 462.729 40.6647C473.347 36.7238 485.049 39.9437 491.54 49.2751C493.824 52.5576 495.761 56.7631 496.018 60.6682C498.713 101.577 494.198 141.417 476.332 178.88C462.052 208.821 438.825 229.225 407.891 240.846C404.168 242.244 402.951 243.843 402.963 247.884C403.124 304.199 403.145 360.516 402.93 416.831C402.913 421.26 400.881 425.682 399.553 430.398Z" fill="#010101"/>
<path d="M144.588 126.563C149.643 124.349 154.358 122.308 159.546 120.062C164.34 130.888 169.1 141.564 173.802 152.265C196.69 204.352 219.403 256.516 242.549 308.487C248.614 322.104 248.066 335.923 246.753 350.084C244.755 371.63 242.87 393.188 241.117 414.755C240.598 421.137 237.961 425.93 232.167 428.636C226.314 431.369 220.844 430.177 215.831 426.299C195.716 410.741 175.626 395.151 155.458 379.663C147.09 373.238 140.818 365.303 136.569 355.633C109.149 293.22 81.6634 230.835 54.2101 168.436C54.0195 168.003 53.9839 167.502 53.7588 166.523C83.9201 153.261 114.084 139.998 144.588 126.563Z" fill="#010101"/>
<path d="M228.59 72.6563C244.108 43.1525 268.154 26.5826 301.102 25.2627C334.043 23.9429 359.746 38.2325 376.882 66.4248C394.672 95.6915 392.311 132.53 371.855 159.711C351.335 186.975 316.872 199.12 283.56 190.826C251.239 182.778 226.176 155.079 221.187 121.619C218.667 104.723 221.227 88.4876 228.59 72.6563Z" fill="#010101"/>
<path d="M148.72 95.2906C149.643 97.4679 150.41 99.2929 151.369 101.573C116.07 117.097 80.9099 132.559 45.1539 148.284C38.7142 133.077 31.3823 118.322 26.1943 102.849C20.0149 84.4183 30.045 64.1128 47.8482 55.9171C59.1439 50.7171 70.5169 45.6685 81.9892 40.8723C101.22 32.8326 123.752 41.1903 132.902 59.9662C138.495 71.442 143.367 83.2689 148.72 95.2906Z" fill="#010101"/>
</svg>
