<svg width="640" height="512" viewBox="0 0 640 512" fill="none" xmlns="http://www.w3.org/2000/svg">
<g clip-path="url(#clip0_140_32)">
<circle cx="377.502" cy="160.198" r="84.1976" fill="black"/>
<path d="M294.674 473.853V480.732C294.674 490.673 302.733 498.732 312.674 498.732H445.069C455.01 498.732 463.069 490.673 463.069 480.732V283.389C463.069 272.18 452.934 263.697 441.9 265.67L309.505 289.351C307.44 289.72 305.511 290.432 303.771 291.422C311.509 305.495 316.379 321.035 318.134 337.074L327.154 431.352C328.437 443.46 326.762 461.684 316.85 468.535C311.338 472.345 302.916 474.026 294.674 473.853Z" fill="black"/>
<path d="M593.487 137.299C593.487 123.492 582.294 112.299 568.487 112.299C554.68 112.299 543.487 123.492 543.487 137.299C543.487 138.6 543.493 139.946 543.499 141.333L543.499 141.351C543.608 166.883 543.777 206.373 509.5 238.978C499.952 248.06 486.292 254.347 468.047 258.489C449.738 262.647 428.88 264.213 406.309 265.322C402.257 265.521 398.124 265.706 393.942 265.893L393.939 265.893C375.688 266.708 356.509 267.565 339.132 269.847C325.053 271.696 310.328 274.663 296.758 280.243L297.35 281.035C306.755 294.64 313.212 310.044 316.453 326.205C323.775 323.296 333.365 321.034 345.643 319.421C360.677 317.447 377.115 316.706 395.202 315.892C399.623 315.692 404.142 315.489 408.763 315.262C431.458 314.146 456.164 312.461 479.119 307.248C502.138 302.021 525.443 292.821 543.961 275.206C594.369 227.256 593.776 167.701 593.519 141.868C593.502 140.2 593.487 138.673 593.487 137.299Z" fill="black"/>
<path d="M117.73 83.756L143.378 120.856L43.7234 189.738L18.0753 152.638C4.82725 133.475 9.61945 107.223 28.7838 93.9762L58.9985 73.0349C78.1629 59.7883 104.417 64.5809 117.665 83.7442L117.73 83.756ZM155.354 138.18L278.867 316.923C284.378 324.895 287.778 334.156 288.832 343.792L297.546 425.96C298.161 431.765 295.593 437.391 290.84 440.677C286.087 443.962 279.916 444.376 274.755 441.826L200.96 404.644C192.316 400.253 184.853 393.8 179.342 385.828L55.6996 207.062L155.354 138.18Z" fill="black"/>
</g>
<defs>
<clipPath id="clip0_140_32">
<rect width="640" height="512" fill="white"/>
</clipPath>
</defs>
</svg>
