
<svg width="229" height="227" viewBox="0 0 229 227" fill="none" xmlns="http://www.w3.org/2000/svg">
<path d="M221.564 14.0015L228.914 107.708C229.254 112.045 225.012 115.291 220.915 113.828L132.393 82.2243C127.914 80.625 126.987 74.6984 130.765 71.8083L211.936 9.70545C215.714 6.81531 221.192 9.25974 221.564 14.0015Z" fill="#57627E"/>
<path fill-rule="evenodd" clip-rule="evenodd" d="M113.949 35.5C70.5454 35.5 35.5 70.4992 35.5 113.5C35.5 156.501 70.5454 191.5 113.949 191.5C140.783 191.5 164.451 178.124 178.614 157.677C184.118 149.732 195.02 147.752 202.965 153.256C210.91 158.759 212.889 169.661 207.386 177.607C186.939 207.126 152.704 226.5 113.949 226.5C51.3706 226.5 0.5 175.986 0.5 113.5C0.5 51.0145 51.3706 0.5 113.949 0.5C152.704 0.5 186.939 19.8745 207.386 49.3935C212.889 57.3386 210.91 68.2407 202.965 73.7441C195.02 79.2475 184.118 77.2681 178.614 69.323C164.451 48.8757 140.783 35.5 113.949 35.5Z" fill="#57627E"/>
</svg>
