<svg width="248" height="248" viewBox="0 0 248 248" fill="none" xmlns="http://www.w3.org/2000/svg">
<path fill-rule="evenodd" clip-rule="evenodd" d="M151.685 30.0629C148.34 26.7176 150.002 20.9974 154.618 19.9649L239.912 0.888819C244.204 -0.0712354 248.037 3.76112 247.076 8.05373L228 93.347C226.968 97.9638 221.248 99.6253 217.902 96.28L197.522 75.8994L75.1923 198.229L95.527 218.564C98.8818 221.918 97.1997 227.656 92.5646 228.668L7.96248 247.145C3.69058 248.078 -0.112533 244.275 0.82044 240.003L19.2973 155.401C20.3096 150.766 26.047 149.084 29.4018 152.438L49.7365 172.773L172.066 50.4435L151.685 30.0629Z" fill="#57627E"/>
<path fill-rule="evenodd" clip-rule="evenodd" d="M217.902 151.685C221.248 148.34 226.968 150.002 228 154.618L247.076 239.912C248.037 244.204 244.204 248.037 239.912 247.076L154.618 228C150.002 226.968 148.34 221.248 151.685 217.902L172.066 197.522L49.7365 75.1923L29.4018 95.527C26.047 98.8818 20.3096 97.1997 19.2973 92.5646L0.820441 7.96248C-0.112533 3.69058 3.69058 -0.112533 7.96248 0.82044L92.5646 19.2973C97.1997 20.3096 98.8818 26.047 95.527 29.4018L75.1923 49.7365L197.522 172.066L217.902 151.685Z" fill="#57627E"/>
</svg>
