<svg width="324" height="193" viewBox="0 0 324 193" fill="none" xmlns="http://www.w3.org/2000/svg">
<path d="M279.458 147.574V160.392C279.8 160.733 280.361 160.904 281.143 160.904C281.924 160.904 282.173 160.901 283 160C283.827 159.099 285 153 284.5 147C284 141 282.5 136.5 281.5 136C280.5 135.5 279.287 135.44 278.799 135.929C279.238 140.763 279.458 144.645 279.458 147.574ZM252.065 180.021C244.058 172.306 240.054 161.856 240.054 148.673C240.054 135.44 243.813 125.016 251.333 117.398C258.901 109.732 268.813 105.899 281.069 105.899C293.325 105.899 303.237 109.879 310.806 117.838C318.325 125.797 322.085 136.173 322.085 148.966C322.085 161.71 318.447 171.842 311.172 179.361C303.945 186.881 294.106 190.641 281.655 190.641C269.204 190.641 259.341 187.101 252.065 180.021Z" fill="black"/>
<path d="M193.669 158.414C194.157 158.902 195.354 158.793 196.427 158.146C197.5 157.5 199 155 199.21 147.501C199.42 140.002 198.5 138 197.697 137.247C196.895 136.494 196.794 136.441 196.013 136.441C195.231 136.441 194.67 136.612 194.328 136.954V146.769C194.328 149.698 194.108 153.58 193.669 158.414ZM196.599 101.429V108.284L198.43 108.243C209.172 108.243 217.961 111.954 224.797 119.376C231.682 126.749 235.124 136.368 235.124 148.233C235.124 162.589 230.974 173.404 222.673 180.68C215.104 187.32 204.802 190.641 191.765 190.641C178.776 190.641 169.206 188.126 163.054 183.097C159.685 180.313 158 176.7 158 172.257V91.6875C160.344 90.3203 163.151 89.1973 166.423 88.3184C169.743 87.4395 173.088 87 176.457 87C182.072 87 186.711 88.0986 190.373 90.2959C194.523 92.8838 196.599 96.5947 196.599 101.429Z" fill="black"/>
<path d="M164.417 85.4482C150.892 85.4482 140.223 81.6885 132.41 74.1689C124.402 66.6006 120.398 56.249 120.398 43.1143C120.398 29.9307 124.524 19.4814 132.776 11.7666C140.394 4.58887 150.037 1 161.707 1C173.377 1 182.728 4.22266 189.759 10.668C196.839 17.0645 200.379 24.9502 200.379 34.3252C200.379 42.6748 197.474 48.9736 191.663 53.2217C186.292 57.2256 178.968 59.2275 169.69 59.2275C162.757 59.2275 156.897 57.7871 152.112 54.9062C151.722 55.1992 151.526 55.7363 151.526 56.5176C151.526 57.9824 153.455 59.3252 157.312 60.5459C161.17 61.8643 165.54 62.5234 170.423 62.5234C175.354 62.5234 179.822 61.9131 183.826 60.6924C187.879 59.4229 194.059 56.709 196.5 55C197.672 56.0254 198.5 60 198.5 65C198.5 70 196.21 75.3993 195.5 76C191.691 79.2227 189.075 81.0049 185.071 82.3721C179.407 84.4229 172.522 85.4482 164.417 85.4482ZM164 36C167.5 36 168.5 35.3555 168.5 33.5C168.5 31.7422 165.833 30.4434 163.245 30.4434C160.657 30.4434 158.168 31.835 157.777 34.6182C159.145 35.4482 162.242 36 164 36Z" fill="black"/>
<path d="M37.3724 81.3939C32.9258 84.082 28.1589 84.9298 23.2212 84.8745C19.2734 84.8302 15.5529 83.8522 12.2367 81.3763C8.15943 78.3321 6.00706 74.1213 6.12254 68.6605C6.27857 61.2827 6.55528 53.9082 6.72944 46.5308C6.84079 41.814 6.64998 37.1145 5.46954 32.5369C4.91253 30.3768 4.17875 28.2984 2.6844 26.6728C2.46124 26.4301 2.22398 26.1246 1.94467 26.0375C1.06152 25.7624 1.01529 25.0816 1.00467 24.2379C0.956688 20.4284 1.26194 16.6774 2.70386 13.1682C5.33637 6.7615 9.97099 3.15432 16.1578 1.9566C20.4022 1.13491 24.611 1.45031 28.6839 3.13632C30.9316 4.06678 32.9023 5.48728 34.6193 7.33891C35.7377 6.51078 36.8004 5.61179 37.954 4.88904C43.0422 1.70102 48.5648 0.731319 54.3345 1.16195C59.8597 1.57434 64.493 4.12459 68.3902 8.39392C68.6886 8.7208 68.9599 9.07946 69.2283 9.43742C69.4796 9.77255 69.7104 10.1264 69.9764 10.5097C70.055 10.4553 70.1584 10.4195 70.2118 10.3418C73.3881 5.72676 77.7105 3.1152 82.7318 1.87308C89.2839 0.252253 95.693 0.811235 101.728 4.19805C107.615 7.50217 111.042 13.0564 112.91 19.8945C114.265 24.8534 114.44 29.9457 114.337 35.0793C114.239 39.9874 114.157 44.8989 114.218 49.8066C114.252 52.5716 114.674 55.3375 116.056 57.7249C116.692 58.8252 117.671 59.6829 118.481 60.665C118.676 60.9025 118.949 61.1903 118.961 61.466C119.198 67.4122 118.427 73.0728 114.818 77.8222C111.766 81.8369 107.781 84.0317 103.116 84.7037C98.8723 85.3149 94.6854 84.9947 90.7118 83.0949C85.2078 80.4633 81.9019 75.7618 80.6924 69.364C80.1856 66.6833 79.9667 63.8977 79.9312 61.1549C79.832 53.4821 79.9152 45.8065 79.8751 38.1323C79.8696 37.0826 79.7141 35.9755 79.3785 34.9992C78.8089 33.342 76.9352 32.7103 75.536 33.5868C75.3552 33.7 75.1952 34.0902 75.2192 34.3284C75.554 37.6472 75.925 40.9616 76.28 44.278C76.3261 44.7094 76.3528 45.146 76.3535 45.5802C76.362 51.4231 76.3265 57.2665 76.3813 63.1088C76.418 67.0153 76.8519 70.8685 78.2453 74.514C78.5595 75.3359 78.9497 76.1225 79.3276 76.9768C77.7159 78.926 75.7876 80.4747 73.6435 81.6841C67.8394 84.9579 61.7231 85.8471 55.3907 84.1752C49.1287 82.5219 45.5375 77.9026 44.2842 71.0701C43.8643 68.7808 43.6861 66.4045 43.6666 64.0652C43.5957 55.5485 43.6626 47.0304 43.6121 38.5134C43.6048 37.2681 43.4083 35.955 43.0039 34.7989C42.4675 33.265 40.5 32.7421 39.2262 33.6312C39.0503 33.7539 38.9134 34.1434 38.9383 34.3871C39.2837 37.7631 39.6627 41.135 40.0266 44.5088C40.0669 44.8824 40.0808 45.2615 40.0813 45.6381C40.0914 52.2076 40.084 58.7772 40.1096 65.3467C40.1252 69.3454 40.467 73.2887 41.9273 77.0228C42.0025 77.2153 41.8592 77.6529 41.6911 77.7975C40.284 79.0074 38.8474 80.1754 37.3724 81.3939Z" fill="black"/>
<path d="M240.372 81.3939C235.926 84.082 231.159 84.9298 226.221 84.8745C222.273 84.8302 218.553 83.8522 215.237 81.3763C211.159 78.3321 209.007 74.1213 209.123 68.6605C209.279 61.2827 209.555 53.9082 209.729 46.5308C209.841 41.814 209.65 37.1145 208.47 32.5369C207.913 30.3768 207.179 28.2984 205.684 26.6728C205.461 26.4301 205.224 26.1246 204.945 26.0375C204.062 25.7624 204.015 25.0816 204.005 24.2379C203.957 20.4284 204.262 16.6774 205.704 13.1682C208.336 6.7615 212.971 3.15432 219.158 1.9566C223.402 1.13491 227.611 1.45031 231.684 3.13632C233.932 4.06678 235.902 5.48728 237.619 7.33891C238.738 6.51078 239.8 5.61179 240.954 4.88904C246.042 1.70102 251.565 0.731319 257.334 1.16195C262.86 1.57434 267.493 4.12459 271.39 8.39392C271.689 8.7208 271.96 9.07946 272.228 9.43742C272.48 9.77255 272.71 10.1264 272.976 10.5097C273.055 10.4553 273.158 10.4195 273.212 10.3418C276.388 5.72676 280.711 3.1152 285.732 1.87308C292.284 0.252253 298.693 0.811235 304.728 4.19805C310.615 7.50217 314.042 13.0564 315.91 19.8945C317.265 24.8534 317.44 29.9457 317.337 35.0793C317.239 39.9874 317.157 44.8989 317.218 49.8066C317.252 52.5716 317.674 55.3375 319.056 57.7249C319.692 58.8252 320.671 59.6829 321.481 60.665C321.676 60.9025 321.949 61.1903 321.961 61.466C322.198 67.4122 321.427 73.0728 317.818 77.8222C314.766 81.8369 310.781 84.0317 306.116 84.7037C301.872 85.3149 297.685 84.9947 293.712 83.0949C288.208 80.4633 284.902 75.7618 283.692 69.364C283.186 66.6833 282.967 63.8977 282.931 61.1549C282.832 53.4821 282.915 45.8065 282.875 38.1323C282.87 37.0826 282.714 35.9755 282.378 34.9992C281.809 33.342 279.935 32.7103 278.536 33.5868C278.355 33.7 278.195 34.0902 278.219 34.3284C278.554 37.6472 278.925 40.9616 279.28 44.278C279.326 44.7094 279.353 45.146 279.353 45.5802C279.362 51.4231 279.326 57.2665 279.381 63.1088C279.418 67.0153 279.852 70.8685 281.245 74.514C281.559 75.3359 281.95 76.1225 282.328 76.9768C280.716 78.926 278.788 80.4747 276.643 81.6841C270.839 84.9579 264.723 85.8471 258.391 84.1752C252.129 82.5219 248.537 77.9026 247.284 71.0701C246.864 68.7808 246.686 66.4045 246.667 64.0652C246.596 55.5485 246.663 47.0304 246.612 38.5134C246.605 37.2681 246.408 35.955 246.004 34.7989C245.467 33.265 243.5 32.7421 242.226 33.6312C242.05 33.7539 241.913 34.1434 241.938 34.3871C242.284 37.7631 242.663 41.135 243.027 44.5088C243.067 44.8824 243.081 45.2615 243.081 45.6381C243.091 52.2076 243.084 58.7772 243.11 65.3467C243.125 69.3454 243.467 73.2887 244.927 77.0228C245.003 77.2153 244.859 77.6529 244.691 77.7975C243.284 79.0074 241.847 80.1754 240.372 81.3939Z" fill="black"/>
</svg>
