<svg width="200" height="200" viewBox="0 0 200 200" fill="none" xmlns="http://www.w3.org/2000/svg">
<path d="M55.4308 167.411C51.883 172.478 47.453 174.316 41.9331 173.957C37.5266 173.67 35.0909 173.919 30.6683 173.89C20.8541 173.827 21.3903 162 21.9998 158.5C22.6093 155 21.9998 153.5 20.8903 152.402C19.7808 151.304 13.3217 150.155 9.5 150C3.5 148 3.03606 145.67 2.5 139.5C2.5001 135.183 3.9999 134 7.77584 129.291C10.4132 126.931 12.8449 124.308 15.4503 121.905C16.866 120.599 17.9483 119.263 18.1166 117.121C19.0279 105.522 22.0739 94.3109 23.6721 82.7949C26.8924 59.5903 44.6753 42.136 66.4161 37.8046C79.798 35.1386 92.8075 36.095 105.034 43.2146C110.153 46.195 114.471 50.1232 117.851 55.2433C122.71 62.6018 122.737 62.5817 131.303 66.4874C135.08 61.2008 137.023 54.8284 139.758 48.9137C140.992 46.2427 142.035 43.4702 143.258 40.7928C152.189 21.2468 167.423 19.3829 183.246 27.6014C194.089 33.2337 199.08 43.5579 199.406 56.2337C199.567 62.4904 200.308 68.8384 198.618 75.065C195.515 86.5 182.469 95.0238 167.627 90.5C162.144 88.8287 160.583 93.4409 157.286 97.4655C146.854 110.2 144.538 124.663 148.772 140.629C150.023 145.345 151.251 150.111 153.024 154.613C154.911 159.404 154.338 164.267 154.273 169.124C154.232 172.115 152.108 173.355 149.603 173.527C141.592 174.077 133.575 174.143 125.563 173.486C123.079 173.283 121.477 171.506 119.75 169.868C116.167 166.471 113.761 162.032 110.691 158.023C106.262 159.655 102.006 161.438 97.6339 162.792C87.2505 166.01 76.8276 166.026 66.9682 161.047C62.8987 158.992 60.4511 158.954 58.3482 163.372C57.6906 164.754 56.5716 165.883 55.4308 167.411ZM140.854 158.745C142.629 158.682 143.715 158.091 143.045 155.84C142.401 153.67 140.846 147.468 140.314 145.262C134.01 119.134 135.822 97.2019 155.973 77.8056C159.812 74.1107 162.766 73.2696 167.627 75.7443C178.121 81.0869 186.913 79 189.757 63.2973C190.797 57.5573 190.478 51.6967 187.953 46.3138C183.761 37.3769 176.456 33.7402 167.567 33.1721C159.425 32.6517 155.06 38.1171 151.83 45.1054C150.014 49.0337 148.275 53.0083 146.647 57.0299C139.032 75.8457 128.562 91.8865 110.845 101.462C93.5174 110.826 75.5881 118.29 56.6139 122.734C49.2695 124.455 41.7868 126.409 34.3066 124.985C27.5847 123.705 20.3268 130.584 15.9998 135C29.5 138 33.4998 140.5 32.8207 156.731C42.3052 160.313 47.7229 155.843 53.5211 145.295C58.0069 137.134 58.7084 136.866 66.4392 141.817C74.0973 146.722 82.1622 148.095 90.9578 146.49C97.5376 145.29 103.352 142.083 109.458 139.627C113.158 138.138 116.187 138.246 117.961 142.712C121.933 152.711 129.395 161.131 140.854 158.745ZM94.4122 90.8383C85.0997 95.6127 75.4264 99.3577 65.5507 102.545C54.7071 106.044 43.6447 108.108 32.3225 108.449C30.5302 108.503 28.8786 108.713 28.5444 110.859C28.1587 113.336 29.8791 114.164 31.7597 114.636C34.8036 115.401 37.8266 115.584 40.989 115.243C61.7718 113.001 81.0511 105.442 99.7721 96.0837C108.058 91.9419 116.227 87.3393 122.407 79.7574C123.618 78.2718 125.645 76.5063 123.885 74.3488C122.074 72.1299 120.109 73.3643 118.335 75.0058C111.344 81.4745 103.34 86.2146 94.4122 90.8383ZM78.2423 55.4989C79.2127 52.8009 81.2321 50.4791 80.8787 46.7332C66.7879 45.9728 54.8381 50.6436 44.2659 61.3396C51.1848 65.8572 60.4998 67.5 67.4998 64.5C74.4998 61.5 76.852 59.6168 78.2423 55.4989ZM69.9998 73.1222C59.912 76.7 58.7267 82.255 57.9267 89.0685C57.4692 92.9644 59.0062 94.3155 62.4892 93.0793C66.838 91.5358 71.2389 90.1371 75.5156 88.3897C80.487 86.3583 85.5576 84.4833 91.0172 80.9654C85.5453 77.1523 80.0877 69.5445 69.9998 73.1222ZM95.9977 72.2022C98.7291 75.994 101.705 76.313 105.111 73.1222C106.58 71.7452 108.26 70.6124 109.9 69.46C112.702 67.4908 112.82 65.1902 110.991 62.3557C107.032 56.2232 101.654 52.1499 95.2427 49.4897C93.3746 48.7145 91.9416 48.7751 90.6094 50.8193C84.9278 59.5372 85.1757 62.2667 92.5656 68.8759C93.5696 69.7738 94.5111 70.752 95.9977 72.2022ZM36.9346 71.5891C33.2586 78.2915 31.8314 85.5826 32.0948 93.2826C32.1592 95.1644 32.0492 97.5682 34.4586 97.8294C38.0313 98.2169 41.7009 98.3038 45.1469 97.0646C47.734 96.1343 51.7832 77.8157 49.5696 76.3476C45.8531 73.8827 42.283 70.4379 36.9346 71.5891Z" fill="black"/>
<path d="M176.77 47.5014C180.55 49.0135 182.333 54.7276 179.857 58.1008C177.789 60.9184 175 61.7475 171.874 60.3006C168.446 58.7144 167.397 55.5815 168.317 52.1066C169.403 48.0045 172.99 45.9892 176.77 47.5014Z" fill="black"/>
<path d="M2.01622 167.975C1.83411 164.483 3.20881 163.236 4.96634 163.141C8.67355 162.94 12.3899 162.983 16.1003 163.089C17.8425 163.139 19.0415 164.528 18.9989 167.286C18.9543 170.179 17.6146 170.993 15.8732 170.981C12.3505 170.955 8.82726 170.94 5.30486 170.999C3.84273 171.024 2.67753 170.466 2.01622 167.975Z" fill="black"/>
</svg>
