<svg width="640" height="512" viewBox="0 0 640 512" fill="none" xmlns="http://www.w3.org/2000/svg">
<path d="M320 212.472V182.824C320 181.167 321.343 179.824 323 179.824H382.291C383.063 179.824 383.805 179.527 384.363 178.994L401.289 162.83C401.847 162.297 402.589 162 403.361 162H491.524C492.323 162 493.089 162.319 493.652 162.886L509.601 178.938C510.164 179.505 510.93 179.824 511.729 179.824H571.453C573.109 179.824 574.453 181.167 574.453 182.824V212.472C574.453 214.129 573.109 215.472 571.453 215.472H323C321.343 215.472 320 214.129 320 212.472Z" fill="black"/>
<path d="M338.477 464.144L338.767 237.164C338.77 234.956 340.56 233.169 342.767 233.169H552.448C554.659 233.169 556.45 234.963 556.448 237.174L556.157 464.193C556.144 474.677 547.641 483.169 537.157 483.169H357.477C346.974 483.169 338.464 474.647 338.477 464.144Z" fill="black"/>
<path d="M341.336 160.5H303.5C300.739 160.5 298.5 162.739 298.5 165.5V229C298.5 231.761 300.739 234 303.5 234H311C313.761 234 316 236.239 316 239V370.939L209.649 315.276C206.937 313.857 203.69 313.913 201.029 315.425L93.4464 376.558C87.4466 379.968 80 375.634 80 368.733V72C80 57.6406 91.6406 46 106 46H315.336C329.695 46 341.336 57.6406 341.336 72V160.5Z" fill="black"/>
</svg>
