<svg width="640" height="512" viewBox="0 0 640 512" fill="none" xmlns="http://www.w3.org/2000/svg">
<path d="M360.972 328.834C360.971 329.783 360.518 330.68 359.75 331.236C317.056 362.127 262.22 360.904 219.289 326.021C173.892 289.134 161.847 224.855 190.875 174.128L191.644 172.718C198.823 160.086 215.084 155.662 227.719 162.838C240.354 170.015 244.852 186.181 237.599 198.904L236.83 200.313C220.704 228.587 227.397 264.4 252.728 284.982C281.328 308.221 323.299 303.886 346.545 275.292L355.717 263.888C357.493 261.68 361.058 262.938 361.055 265.772L360.972 328.834Z" fill="black"/>
<path d="M453.081 38.4491C491.599 69.7472 505.579 114.174 492.502 158.796C492.133 160.055 490.968 160.913 489.655 160.913H439.381C437.015 160.913 435.562 158.282 436.682 156.197C451.136 129.262 444.712 99.8583 419.642 79.4874C394.393 58.8961 357.959 59.6659 333.488 81.2351L332.265 82.2761C321.372 91.9658 304.624 90.8686 294.932 79.979C285.24 69.0893 286.256 52.3541 297.232 42.6559L298.455 41.6149C342.282 2.91279 407.684 1.5624 453.081 38.4491Z" fill="black"/>
<path d="M40.8619 231.614C-0.833801 282.901 6.94181 358.181 58.2402 399.863C103.637 436.75 169.038 435.4 212.866 396.698L214.089 395.657C225.064 385.958 226.08 369.223 216.389 358.334C206.697 347.444 189.949 346.347 179.056 356.036L177.833 357.077C153.362 378.647 116.928 379.416 91.6791 358.825C63.0706 335.504 58.7367 293.545 81.9829 264.951L164.776 163.02C188.022 134.427 229.993 130.091 258.593 153.33C283.924 173.913 290.617 209.725 274.499 238.081L273.73 239.491C266.477 252.214 270.975 268.38 283.61 275.556C296.245 282.733 312.506 278.309 319.685 265.677L320.454 264.267C349.474 213.458 337.428 149.179 292.031 112.292C240.733 70.6098 165.433 78.3875 123.737 129.675L40.8619 231.614Z" fill="black"/>
<path d="M366.547 231.303V201.655C366.547 199.998 367.891 198.655 369.547 198.655H428.839C429.61 198.655 430.352 198.358 430.91 197.825L447.837 181.662C448.395 181.129 449.137 180.831 449.908 180.831H538.072C538.871 180.831 539.637 181.15 540.2 181.717L556.148 197.77C556.711 198.336 557.477 198.655 558.276 198.655H618C619.657 198.655 621 199.998 621 201.655V231.303C621 232.96 619.657 234.303 618 234.303H369.547C367.891 234.303 366.547 232.96 366.547 231.303Z" fill="black"/>
<path d="M385.024 482.976L385.315 255.995C385.317 253.788 387.107 252 389.315 252H598.995C601.206 252 602.998 253.794 602.995 256.005L602.705 483.024C602.691 493.508 594.189 502 583.705 502H404.024C393.521 502 385.011 493.479 385.024 482.976Z" fill="black"/>
</svg>
