<svg width="215" height="714" viewBox="0 0 215 714" fill="none" xmlns="http://www.w3.org/2000/svg">
<path fill-rule="evenodd" clip-rule="evenodd" d="M10.1021 167.624C1.87241 166.792 -2.52972 157.516 2.03033 150.615L97.4883 6.15151C102.232 -1.0278 112.768 -1.02782 117.512 6.1515L212.97 150.615C217.53 157.516 213.128 166.792 204.898 167.624L155.977 172.566C150.736 173.096 146.617 177.171 146.167 182.42C143.14 217.689 132.381 350.191 132.381 451.703C132.381 554.553 139.635 567.858 141.512 569.579C141.767 569.813 142.123 569.851 142.469 569.883L184.697 573.89C192.903 574.668 197.369 583.862 192.908 590.794L117.591 707.821C112.866 715.162 102.134 715.162 97.4092 707.821L22.0919 590.794C17.631 583.862 22.097 574.668 30.3029 573.89L71.4356 569.987C72.5057 569.886 73.6497 569.709 74.2292 568.803C76.7879 564.806 82.6191 545.416 82.6191 451.703C82.6191 348.627 71.8783 217.446 68.841 182.41C68.3864 177.166 64.2697 173.096 59.0328 172.567L10.1021 167.624Z" fill="#57627E" fill-opacity="0.3"/>
</svg>
