<svg width="512" height="512" viewBox="0 0 512 512" fill="none" xmlns="http://www.w3.org/2000/svg">
<path d="M138.075 496C89.4752 496 50.0752 456.6 50.0752 408V91.925C50.0752 43.325 89.4752 3.92499 138.075 3.92499H420.075C468.675 3.92499 508.075 43.325 508.075 91.925V276.5C508.075 289.8 497.375 300.5 484.075 300.5C470.775 300.5 460.075 289.8 460.075 276.5V91.925C460.075 69.825 442.175 51.925 420.075 51.925H138.075C115.975 51.925 98.0752 69.825 98.0752 91.925V408C98.0752 430.1 115.975 448 138.075 448H270.5C283.8 448 294.5 458.7 294.5 472C294.5 485.3 283.8 496 270.5 496L138.075 496Z" fill="black"/>
<path d="M283.65 395C349.096 395 402.15 341.946 402.15 276.5C402.15 211.054 349.096 158 283.65 158C218.204 158 165.15 211.054 165.15 276.5C165.15 341.946 218.204 395 283.65 395Z" stroke="black" stroke-width="45"/>
<path d="M390.574 350.149L369.223 329.074L327.074 371.777L348.426 392.851L390.574 350.149ZM437.076 480.351C448.868 491.99 467.862 491.866 479.501 480.074C491.14 468.282 491.016 449.288 479.224 437.649L437.076 480.351ZM348.426 392.851L437.076 480.351L479.224 437.649L390.574 350.149L348.426 392.851Z" fill="black"/>
<path d="M280.15 221C280.15 221 298.184 221.344 314.319 233.04C330.455 244.736 336.15 264 336.15 264" stroke="black" stroke-width="35" stroke-linecap="round"/>
</svg>
