<svg width="89" height="92" viewBox="0 0 89 92" fill="none" xmlns="http://www.w3.org/2000/svg">
<path d="M72 18.175V8C72 5.79086 70.2091 4 68 4H8C5.79086 4 4 5.79086 4 8V84C4 86.2091 5.79086 88 8 88H68C70.2091 88 72 86.2091 72 84V71.725" stroke="black" stroke-width="8" stroke-linecap="round"/>
<circle cx="58" cy="42" r="16.5" stroke="black" stroke-width="7"/>
<path d="M72 55L84 67" stroke="black" stroke-width="10" stroke-linecap="round"/>
<path d="M49.5 71.5H18" stroke="black" stroke-width="8" stroke-linecap="round"/>
<path d="M31.5 57H18" stroke="black" stroke-width="8" stroke-linecap="round"/>
<path d="M18 14H36.7574C39.4301 14 40.7686 17.2314 38.8787 19.1213L28.4645 29.5355C27.5268 30.4732 26.255 31 24.9289 31H18C16.3431 31 15 29.6569 15 28V17C15 15.3431 16.3431 14 18 14Z" fill="black"/>
<path d="M28.5 42L18 41.9998" stroke="black" stroke-width="8" stroke-linecap="round"/>
</svg>
