<svg width="200" height="254" viewBox="0 0 200 254" fill="none" xmlns="http://www.w3.org/2000/svg">
<path d="M102.969 58.4615C114.062 58.4615 127.969 50.7311 136.25 40.4238C143.75 31.0828 149.219 18.0377 149.219 4.99257C149.219 3.22101 149.062 1.44946 148.75 0C136.406 0.483153 121.562 8.5357 112.656 19.3261C105.625 27.5397 99.2187 40.4238 99.2187 53.63C99.2187 55.5626 99.5312 57.4952 99.6875 58.1394C100.469 58.3005 101.719 58.4615 102.969 58.4615ZM63.9062 253.333C79.0625 253.333 85.7812 242.865 104.687 242.865C123.906 242.865 128.125 253.011 145 253.011C161.562 253.011 172.656 237.228 183.125 221.767C194.844 204.052 199.687 186.658 200 185.853C198.906 185.531 167.187 172.164 167.187 134.639C167.187 102.106 192.187 87.4507 193.594 86.3234C177.031 61.8436 151.875 61.1994 145 61.1994C126.406 61.1994 111.25 72.7951 101.719 72.7951C91.4062 72.7951 77.8125 61.8436 61.7187 61.8436C31.0937 61.8436 0 87.9339 0 137.215C0 167.815 11.5625 200.186 25.7812 221.123C37.9687 238.839 48.5937 253.333 63.9062 253.333Z" fill="black"/>
</svg>
