<svg width="200" height="200" viewBox="0 0 200 200" fill="none" xmlns="http://www.w3.org/2000/svg">
<mask id="mask0_14_14" style="mask-type:luminance" maskUnits="userSpaceOnUse" x="0" y="0" width="200" height="200">
<path d="M200 0H0V200H200V0Z" fill="white"/>
</mask>
<g mask="url(#mask0_14_14)">
<path d="M196 102.273C196 95.182 195.364 88.364 194.182 81.818H100V120.5H153.818C151.5 133 144.455 143.591 133.864 150.682V175.773H166.182C185.091 158.364 196 132.727 196 102.273Z" fill="#4285F4"/>
<path d="M100.001 200C127.001 200 149.637 191.045 166.182 175.773L133.864 150.682C124.91 156.682 113.455 160.227 100.001 160.227C73.9555 160.227 51.9104 142.636 44.0464 119H10.6375V144.909C27.0925 177.591 60.9105 200 100.001 200Z" fill="#34A853"/>
<path d="M44.045 119C42.045 113 40.909 106.591 40.909 100C40.909 93.409 42.045 87 44.045 81V55.091H10.636C3.864 68.591 0 83.864 0 100C0 116.136 3.864 131.409 10.636 144.909L44.045 119Z" fill="#FBBC04"/>
<path d="M100.001 39.773C114.682 39.773 127.864 44.818 138.228 54.727L166.91 26.045C149.592 9.909 126.955 0 100.001 0C60.9105 0 27.0925 22.409 10.6375 55.091L44.0464 81C51.9104 57.364 73.9555 39.773 100.001 39.773Z" fill="#E94235"/>
</g>
</svg>
